<svg xmlns="http://www.w3.org/2000/svg" width="1000" height="1000"><g clip-path="url(#a)"><path fill="#fff" d="M0 0h1000v1000H0z"/><svg xmlns="http://www.w3.org/2000/svg" xmlns:svgjs="http://svgjs.dev/svgjs" xmlns:xlink="http://www.w3.org/1999/xlink" width="76" height="32" transform="translate(50 310.526)scale(11.8421)"><svg xmlns="http://www.w3.org/2000/svg" width="76" height="32" fill="none" viewBox="0 0 76 32"><path fill="#010101" fill-rule="evenodd" d="M76 0H43v32h33zM43.788 8.81v14.059c-.007.08.015.128.107.115h3.677c.075.002.112.002.13-.016.016-.017.015-.05.013-.116V8.83l-.001-.033v-.066c.009-.082-.02-.125-.108-.115q-.027.002-.055 0h-3.636c-.065-.002-.097-.002-.113.014-.017.016-.016.05-.015.116zm19.558-.193h-5.858l-5.853-.001h-.132c-.066-.003-.09.028-.085.089v3.451c0 .071 0 .107.017.124s.051.016.118.016h3.725c.12 0 .179 0 .208.03.03.028.03.086.03.2v10.281l-.001.053c-.001.059-.002.09.014.106.016.018.052.017.126.017h3.567c.111 0 .166 0 .193-.027s.027-.08.027-.186V12.428c-.002-.063-.002-.096.014-.113.018-.019.055-.019.133-.018h3.794c.162 0 .162 0 .164-.16V8.76c.001-.073.002-.109-.016-.126-.017-.017-.053-.017-.123-.016z" clip-rule="evenodd"/><path fill="#010101" fill-rule="evenodd" d="M43.5 0H0v32h43.5zM20.817 13.662l.216.174c.048-.03.078-.07.107-.107l.02-.026.761-.91 1.523-1.82c.1-.122.098-.178-.018-.277a13 13 0 0 0-.279-.233c-.805-.657-1.69-1.17-2.692-1.467a9.5 9.5 0 0 0-2.05-.353c-.908-.06-1.807-.031-2.699.174-3.121.716-5.45 3.292-5.724 6.594a7.8 7.8 0 0 0 .225 2.638c.52 1.96 1.65 3.462 3.445 4.45.977.54 2.036.823 3.15.912a9.3 9.3 0 0 0 2.796-.189c1.558-.35 2.935-1.056 4.159-2.066a.33.33 0 0 0 .137-.29q-.004-2.357-.003-4.716v-1.18l-.003-.061c-.003-.046-.006-.092.006-.134.015-.048-.011-.076-.037-.103-.021-.023-.042-.045-.039-.077.007-.055-.03-.063-.073-.063H17.17l-.038.001h-.078c-.066-.007-.087.026-.082.086a1 1 0 0 1 0 .115v1.035l-.002 2.144c0 .063-.002.096.014.112.017.018.053.017.126.017h2.663l.062-.001c.072-.001.107-.002.123.016.016.016.016.048.015.11v.757c0 .308 0 .31-.28.444-.821.391-1.688.503-2.582.391-.994-.123-1.79-.591-2.373-1.4-.38-.528-.586-1.123-.664-1.764-.098-.818.001-1.604.374-2.347.45-.892 1.129-1.533 2.104-1.827.685-.207 1.377-.152 2.063-.003.621.135 1.163.437 1.662.817.183.137.36.28.541.427m18.403-2.98c-1.532-1.39-3.358-2.052-5.245-2.067-.872.002-1.523.072-2.214.251-2.005.521-3.574 1.638-4.616 3.422-1.07 1.83-1.287 3.793-.69 5.812.67 2.257 2.097 3.9 4.304 4.815 1.695.701 3.45.795 5.222.332 2.058-.537 3.635-1.725 4.67-3.578.87-1.562 1.104-3.238.78-4.987-.292-1.572-1.021-2.92-2.21-4m-8.463 3.528c.668-1.227 1.735-1.815 2.77-1.838 2.101-.005 3.475 1.173 3.85 2.806.226.984.125 1.94-.36 2.833-.572 1.05-1.463 1.661-2.663 1.797-1.16.134-2.172-.193-2.999-1.024a3.6 3.6 0 0 1-.986-1.914c-.172-.928-.066-1.827.388-2.66" clip-rule="evenodd"/></svg></svg></g><defs><clipPath id="a"><rect width="1000" height="1000" rx="150" ry="150"/></clipPath></defs></svg>