<svg aria-hidden="true" style="position: absolute; width: 0; height: 0; overflow: hidden;" version="1.1" xmlns="http://www.w3.org/2000/svg" xmlns:xlink="http://www.w3.org/1999/xlink">
<defs>
<symbol id="icon-x-mark" viewBox="0 0 32 32">
<path d="M31.479 3.035c0.694-0.694 0.694-1.82 0-2.514s-1.82-0.694-2.514 0l-12.965 12.965-12.965-12.965c-0.694-0.694-1.82-0.694-2.514 0s-0.694 1.82 0 2.514l12.965 12.965-12.965 12.965c-0.694 0.694-0.694 1.82 0 2.514s1.82 0.694 2.514 0l12.965-12.965 12.965 12.965c0.694 0.694 1.82 0.694 2.514 0s0.694-1.82 0-2.514l-12.965-12.965 12.965-12.965z"></path>
</symbol>
<symbol id="icon-check" viewBox="0 0 44 32">
<path stroke-linejoin="miter" stroke-linecap="butt" stroke-miterlimit="4" stroke-width="8" d="M6.555 12.601l12.22 12.351 21.995-21.333"></path>
</symbol>
<symbol id="icon-flag" viewBox="0 0 50 32">
<path fill="#ffd500" style="fill: var(--color1, #ffd500)" d="M48 32h-48v-16h48v16z"></path>
<path fill="#005bbb" style="fill: var(--color2, #005bbb)" d="M48 15.999h-48v-16h48v16z"></path>
</symbol>
</defs>
</svg>
