<svg xmlns="http://www.w3.org/2000/svg" version="1.1" xmlns:xlink="http://www.w3.org/1999/xlink" xmlns:svgjs="http://svgjs.dev/svgjs" width="1000" height="1000"><g clip-path="url(#SvgjsClipPath1082)"><rect width="1000" height="1000" fill="#ffffff"></rect><g transform="matrix(11.842105263157896,0,0,11.842105263157896,49.99999999999994,310.52631578947364)"><svg xmlns="http://www.w3.org/2000/svg" version="1.1" xmlns:xlink="http://www.w3.org/1999/xlink" xmlns:svgjs="http://svgjs.dev/svgjs" width="76" height="32"><svg width="76" height="32" viewBox="0 0 76 32" fill="none" xmlns="http://www.w3.org/2000/svg">
<path fill-rule="evenodd" clip-rule="evenodd" d="M76 0H43V32H76V0ZM43.7876 8.81086V15.7907V22.7378C43.7876 22.7526 43.788 22.7674 43.7883 22.7822C43.7891 22.8116 43.7898 22.8408 43.7876 22.8692C43.781 22.9497 43.8025 22.9973 43.8949 22.9842C43.9169 22.982 43.9389 22.9827 43.9608 22.9834C43.9718 22.9838 43.9828 22.9842 43.9938 22.9842C44.3834 22.9842 44.7732 22.9843 45.163 22.9845H45.1634H45.1637H45.1664C45.9461 22.9849 46.7263 22.9853 47.5065 22.9842C47.5311 22.9842 47.5529 22.9844 47.5721 22.9847C47.6472 22.9856 47.6837 22.9861 47.7011 22.968C47.7176 22.951 47.7168 22.9173 47.7154 22.8518C47.7149 22.8297 47.7144 22.8039 47.7144 22.7739V8.83057C47.7144 8.81962 47.714 8.80867 47.7136 8.79772C47.7129 8.77582 47.7122 8.75391 47.7144 8.73201C47.7226 8.64988 47.6946 8.60717 47.6055 8.61702C47.5879 8.61921 47.5697 8.61849 47.5512 8.61776H47.5511H47.5511C47.5418 8.61739 47.5324 8.61702 47.523 8.61702C47.1293 8.61702 46.7354 8.61684 46.3414 8.61666C45.5533 8.61629 44.765 8.61593 43.9773 8.61702C43.954 8.61702 43.9335 8.61672 43.9154 8.61645C43.8505 8.61547 43.8179 8.61499 43.8018 8.63104C43.7855 8.64724 43.786 8.68028 43.787 8.74665C43.7873 8.7653 43.7876 8.78658 43.7876 8.81086ZM63.3456 8.6175H57.4884C55.5366 8.6175 53.5847 8.6175 51.6346 8.61586C51.6197 8.61586 51.605 8.61604 51.5903 8.61623H51.5903H51.5902H51.5902C51.5611 8.61659 51.5322 8.61695 51.5026 8.61586C51.4366 8.61258 51.4135 8.64379 51.4184 8.70457C51.4195 8.72311 51.4192 8.74093 51.4188 8.75898V8.75902L51.4185 8.77579L51.4184 8.7867V12.1214L51.4183 12.156V12.156C51.418 12.2275 51.4178 12.2627 51.4353 12.28C51.4524 12.2967 51.4861 12.2964 51.5527 12.2958L51.5983 12.2955H55.2775C55.3976 12.2955 55.457 12.2955 55.4864 12.3252C55.5151 12.3543 55.5151 12.4118 55.5151 12.5255V22.8072C55.5151 22.827 55.5149 22.8445 55.5146 22.8601C55.5138 22.919 55.5134 22.9499 55.5286 22.966C55.5452 22.9836 55.5807 22.9835 55.6552 22.9831L55.6917 22.983H55.7412H59.2225C59.3332 22.983 59.388 22.983 59.4152 22.9556C59.4419 22.9286 59.4419 22.8753 59.4419 22.7695V12.4877C59.4419 12.4771 59.4418 12.467 59.4417 12.4575C59.4416 12.4471 59.4415 12.4374 59.4413 12.4283C59.4404 12.3648 59.4398 12.3317 59.4561 12.3147C59.4738 12.2961 59.5112 12.2964 59.5892 12.2969L59.6382 12.2972H63.3835C63.5452 12.2972 63.5452 12.2972 63.5469 12.1378V12.0886V8.81956C63.5469 8.79677 63.5471 8.77651 63.5473 8.75851C63.5482 8.68629 63.5486 8.65042 63.5309 8.63285C63.5135 8.61552 63.4783 8.616 63.4085 8.61696C63.39 8.61722 63.3692 8.6175 63.3456 8.6175Z" fill="#010101"></path>
<path fill-rule="evenodd" clip-rule="evenodd" d="M43.5 0H0V32H43.5V17V0ZM20.817 13.6617L20.8172 13.6619L20.8178 13.6623C20.8889 13.7198 20.9606 13.7777 21.0331 13.8357C21.0815 13.8064 21.1113 13.7663 21.1395 13.7286C21.146 13.7197 21.1525 13.7111 21.1591 13.7027C21.4142 13.4004 21.6677 13.0965 21.9212 12.7926C22.4299 12.1864 22.9369 11.5803 23.4439 10.9725C23.5449 10.8509 23.5416 10.7951 23.4256 10.6965C23.3345 10.6177 23.2417 10.5404 23.1473 10.4632C22.3421 9.80615 21.4573 9.29363 20.4549 8.9963C19.7855 8.79917 19.1012 8.69075 18.4054 8.64311C17.4974 8.58233 16.5977 8.6119 15.7063 8.81724C12.5848 9.53346 10.2553 12.1092 9.9819 15.4111C9.909 16.3014 9.97859 17.1836 10.2072 18.0493C10.7275 20.009 11.8575 21.5105 13.6518 22.4994C14.6294 23.0382 15.6881 23.3224 16.8015 23.4111C17.7443 23.4867 18.6771 23.4292 19.5983 23.2222C21.1558 22.8723 22.5326 22.1659 23.757 21.1556C23.8548 21.0751 23.8945 20.9947 23.8945 20.8665C23.8906 19.2948 23.8908 17.7221 23.8911 16.15L23.8912 14.9708C23.8912 14.9504 23.8898 14.9297 23.8883 14.909C23.8852 14.863 23.882 14.8172 23.8945 14.7754C23.9091 14.7267 23.8828 14.6988 23.8571 14.6716C23.836 14.6492 23.8153 14.6273 23.8183 14.5947C23.8249 14.5404 23.7885 14.5322 23.7454 14.5322H23.6294H17.1693C17.1567 14.5322 17.1439 14.5326 17.131 14.533H17.131H17.131C17.105 14.5337 17.0788 14.5344 17.0534 14.5322C16.9871 14.5257 16.9656 14.5585 16.9705 14.6193C16.9727 14.6445 16.972 14.6705 16.9713 14.6963C16.9709 14.709 16.9705 14.7218 16.9705 14.7343C16.9705 15.0757 16.9703 15.4172 16.9702 15.7586L16.9702 15.7692C16.9698 16.4591 16.9694 17.1491 16.9705 17.839C16.9705 17.8676 16.97 17.8921 16.9695 17.9133C16.9682 17.9763 16.9675 18.0088 16.9834 18.0253C17.0002 18.0428 17.0358 18.0424 17.1089 18.0415C17.1214 18.0414 17.1349 18.0412 17.1496 18.0411C17.1565 18.0411 17.1636 18.0411 17.171 18.0411H19.7723C19.7952 18.0411 19.8155 18.0408 19.8335 18.0406H19.8336C19.9057 18.0398 19.9407 18.0393 19.9574 18.0566C19.9732 18.0729 19.9726 18.1049 19.9716 18.1671V18.1671C19.9713 18.189 19.9709 18.2147 19.9711 18.2448C19.9722 18.3946 19.9718 18.5437 19.9715 18.6931V18.6933V18.6935L19.9715 18.6956C19.9713 18.7697 19.9711 18.8439 19.9711 18.9183V18.9237C19.9711 19.2321 19.9711 19.2345 19.6911 19.3684C18.8709 19.7593 18.0044 19.871 17.1097 19.7593C16.1156 19.6361 15.3203 19.168 14.7371 18.3581C14.3577 17.8308 14.1506 17.2361 14.0727 16.5955C13.9749 15.7774 14.0743 14.9905 14.4471 14.248C14.8961 13.3561 15.5755 12.7154 16.5513 12.4213C17.2356 12.2144 17.9282 12.2686 18.6141 12.4181C19.2355 12.5528 19.7772 12.855 20.276 13.2345C20.4588 13.3722 20.6365 13.5158 20.817 13.6617ZM39.2202 10.6816C37.6876 9.29191 35.8618 8.6299 33.9746 8.61512C33.1031 8.61676 32.4519 8.68739 31.761 8.86645C29.7562 9.38719 28.1872 10.5042 27.145 12.2882C26.0747 14.1182 25.8577 16.0812 26.4558 18.1001C27.1252 20.3572 28.5517 21.9999 30.7586 22.9149C32.4536 23.6163 34.2099 23.71 35.981 23.2467C38.0389 22.7096 39.6162 21.5219 40.6501 19.6689C41.5216 18.1067 41.7552 16.4311 41.4304 14.6816C41.1388 13.1096 40.4098 11.7625 39.2202 10.6816ZM30.757 14.2102C31.4247 12.9831 32.4917 12.395 33.5272 12.372C35.6281 12.3671 37.0017 13.5449 37.3761 15.1777C37.6031 16.1617 37.502 17.1178 37.0166 18.0114C36.445 19.0611 35.5536 19.6722 34.354 19.8085C33.1942 19.9416 32.1819 19.6147 31.3551 18.7835C30.8249 18.2513 30.5051 17.6024 30.3693 16.8697C30.197 15.9416 30.303 15.043 30.757 14.2102Z" fill="#010101"></path>
</svg></svg></g></g><defs><clipPath id="SvgjsClipPath1082"><rect width="1000" height="1000" x="0" y="0" rx="150" ry="150"></rect></clipPath></defs></svg>